<?xml version="1.0" encoding="UTF-8"?><svg id="b" xmlns="http://www.w3.org/2000/svg" viewBox="0 0 712.05 110.36"><defs><style>.d{fill:#8d3;}</style></defs><g id="c"><path d="M0,97.3l11.72-14c7.49,5.97,15.84,9.11,24.63,9.11,5.64,0,8.68-1.95,8.68-5.43,0-3.15-2.5-4.88-12.8-7.27-16.17-3.69-28.64-8.25-28.64-24.09,0-14.1,11.17-24.3,29.4-24.3,12.91,0,23,3.47,31.25,10.09l-10.52,14.86c-6.94-4.88-14.54-7.49-21.27-7.49-5.1,0-7.6,2.17-7.6,5.1,0,3.47,2.6,4.99,13.13,7.38,17.47,3.8,28.32,9.44,28.32,23.87,0,15.52-12.26,24.74-30.71,24.74-13.45,0-26.26-4.23-35.59-12.59Z"/><path d="M68.35,32.63h22.24l18.12,29.4,18.12-29.4h22.24v75.95h-20.94v-43.62l-19.42,29.73h-.44l-19.31-29.51v43.4h-20.62V32.63Z"/><path d="M180.64,32.09h20.29l32.33,76.49h-22.57l-5.53-13.56h-29.29l-5.43,13.56h-22.13l32.33-76.49ZM199.08,78.64l-8.46-21.59-8.57,21.59h17.03Z"/><path d="M232.5,32.63h35.91c11.61,0,19.64,3.04,24.74,8.14,4.45,4.45,6.73,10.31,6.73,18.01,0,11.61-6.18,19.31-15.62,23.33l18.12,26.47h-24.3l-15.3-23h-9.22v23h-21.05V32.63ZM267.44,69.09c7.16,0,11.28-3.47,11.28-9.22s-4.34-9.01-11.39-9.01h-13.78v18.23h13.89Z"/><path d="M320.92,51.08h-22.78v-18.44h66.62v18.44h-22.78v57.5h-21.05v-57.5Z"/><path class="d" d="M367.7,70.81c0-21.18,16.44-39.55,38.96-39.55s38.66,18.07,38.66,39.55-16.44,39.55-38.96,39.55-38.66-18.07-38.66-39.55ZM437.47,70.81c0-18.22-14.07-32.74-31.11-32.74s-30.81,14.66-30.81,32.74,13.63,32.74,31.11,32.74,30.81-14.66,30.81-32.74Z"/><rect class="d" x="553.54" y="3.41" width="9.04" height="9.92"/><path class="d" d="M554.43,33.03h-38.79v-7.26c0-12.89,4.89-19.11,15.26-19.11,3.85,0,6.96.59,11.26,1.93V1.78c-3.41-1.18-6.66-1.78-11.26-1.78-6.67,0-12,2.07-15.85,5.93-4.3,4.3-6.67,11.11-6.67,19.7v7.41h-46.37v-7.26c0-12.89,4.89-19.11,15.26-19.11,3.85,0,6.96.59,11.26,1.93V1.78c-3.41-1.18-6.67-1.78-11.26-1.78-6.66,0-12,2.07-15.85,5.93-4.3,4.3-6.67,11.11-6.67,19.7v7.41h-10.96v6.67h10.96v68.88h7.26V39.7h46.37v68.88h7.26V39.7h38.79v68.88h7.26V33.03h-7.26Z"/><path class="d" d="M570.28,70.81c0-21.63,16.89-39.55,38.51-39.55,14.22,0,23.4,6.52,30.07,14.07l-5.04,5.18c-6.52-6.67-13.92-12.44-25.18-12.44-16.74,0-30.52,14.66-30.52,32.74s13.78,32.74,31.11,32.74c10.66,0,18.66-5.78,25.03-12.89l5.33,4.74c-7.7,8.74-16.89,14.96-30.81,14.96-21.78,0-38.51-17.78-38.51-39.55Z"/><path class="d" d="M641.54,70.66c0-21.92,15.41-39.4,35.85-39.4s34.66,17.18,34.66,39.55c0,1.33,0,1.78-.15,2.96h-62.66c1.33,18.81,14.81,29.77,29.63,29.77,11.7,0,19.7-5.18,25.92-11.85l5.04,4.44c-7.7,8.3-16.74,14.22-31.26,14.22-19.85,0-37.03-15.85-37.03-39.7ZM704.2,67.25c-1.04-15.26-9.78-29.33-27.11-29.33-14.96,0-26.52,12.59-27.85,29.33h54.96Z"/></g></svg>